REM DIRINDEX 1\2,1\3
REM DIRNAME folder01,folder02,folder03
TITLE ""
FILE "NextStage_4th-Part5-P215-2.mp3" MP3
  TRACK 01 AUDIO
    TITLE "0:"
    INDEX 01 00:00:00
  TRACK 02 AUDIO
    TITLE "3:cjc036_2898"
    INDEX 01 00:00:03
  TRACK 03 AUDIO
    TITLE "0:"
    INDEX 01 00:02:34
  TRACK 04 AUDIO
    TITLE "3:cjc036_2899"
    INDEX 01 00:02:47
  TRACK 05 AUDIO
    TITLE "0:"
    INDEX 01 00:03:43
  TRACK 06 AUDIO
    TITLE "2:cjc036_2900"
    INDEX 01 00:03:45
  TRACK 07 AUDIO
    TITLE "0:"
    INDEX 01 00:06:61
  TRACK 08 AUDIO
    TITLE "3:cjc036_2901"
    INDEX 01 00:07:03
  TRACK 09 AUDIO
    TITLE "0:"
    INDEX 01 00:07:72
  TRACK 10 AUDIO
    TITLE "2:cjc036_2902"
    INDEX 01 00:07:74
  TRACK 11 AUDIO
    TITLE "0:"
    INDEX 01 00:11:42
  TRACK 12 AUDIO
    TITLE "3:cjc036_2903"
    INDEX 01 00:12:18
  TRACK 13 AUDIO
    TITLE "0:"
    INDEX 01 00:14:47
  TRACK 14 AUDIO
    TITLE "3:cjc036_2904"
    INDEX 01 00:14:60
  TRACK 15 AUDIO
    TITLE "0:"
    INDEX 01 00:15:58
  TRACK 16 AUDIO
    TITLE "2:cjc036_2905"
    INDEX 01 00:15:62
  TRACK 17 AUDIO
    TITLE "0:"
    INDEX 01 00:19:09
  TRACK 18 AUDIO
    TITLE "3:cjc036_2906"
    INDEX 01 00:19:16
  TRACK 19 AUDIO
    TITLE "0:"
    INDEX 01 00:20:06
  TRACK 20 AUDIO
    TITLE "2:cjc036_2907"
    INDEX 01 00:20:08
  TRACK 21 AUDIO
    TITLE "0:"
    INDEX 01 00:23:55
  TRACK 22 AUDIO
    TITLE "3:cjc036_2908"
    INDEX 01 00:24:31
  TRACK 23 AUDIO
    TITLE "0:"
    INDEX 01 00:26:50
  TRACK 24 AUDIO
    TITLE "3:cjc036_2909"
    INDEX 01 00:26:62
  TRACK 25 AUDIO
    TITLE "0:"
    INDEX 01 00:27:53
  TRACK 26 AUDIO
    TITLE "2:cjc036_2910"
    INDEX 01 00:27:55
  TRACK 27 AUDIO
    TITLE "0:"
    INDEX 01 00:31:20
  TRACK 28 AUDIO
    TITLE "3:cjc036_2911"
    INDEX 01 00:31:47
  TRACK 29 AUDIO
    TITLE "0:"
    INDEX 01 00:32:45
  TRACK 30 AUDIO
    TITLE "2:cjc036_2912"
    INDEX 01 00:32:50
  TRACK 31 AUDIO
    TITLE "0:"
    INDEX 01 00:35:66
  TRACK 32 AUDIO
    TITLE "3:cjc036_2913"
    INDEX 01 00:36:19
  TRACK 33 AUDIO
    TITLE "0:"
    INDEX 01 00:37:12
  TRACK 34 AUDIO
    TITLE "2:cjc036_2914"
    INDEX 01 00:37:22
  TRACK 35 AUDIO
    TITLE "0:"
    INDEX 01 00:40:21
  TRACK 36 AUDIO
    TITLE "3:cjc036_2915"
    INDEX 01 00:40:73
  TRACK 37 AUDIO
    TITLE "0:"
    INDEX 01 00:43:31
  TRACK 38 AUDIO
    TITLE "3:cjc036_2916"
    INDEX 01 00:43:40
  TRACK 39 AUDIO
    TITLE "0:"
    INDEX 01 00:44:40
  TRACK 40 AUDIO
    TITLE "2:cjc036_2917"
    INDEX 01 00:44:46
  TRACK 41 AUDIO
    TITLE "0:"
    INDEX 01 00:46:43
  TRACK 42 AUDIO
    TITLE "3:cjc036_2918"
    INDEX 01 00:46:70
  TRACK 43 AUDIO
    TITLE "0:"
    INDEX 01 00:47:56
  TRACK 44 AUDIO
    TITLE "2:cjc036_2919"
    INDEX 01 00:47:58
  TRACK 45 AUDIO
    TITLE "0:"
    INDEX 01 00:51:07
  TRACK 46 AUDIO
    TITLE "3:cjc036_2920"
    INDEX 01 00:51:34
  TRACK 47 AUDIO
    TITLE "0:"
    INDEX 01 00:52:32
  TRACK 48 AUDIO
    TITLE "2:cjc036_2921"
    INDEX 01 00:52:37
  TRACK 49 AUDIO
    TITLE "0:"
    INDEX 01 00:55:10
  TRACK 50 AUDIO
    TITLE "3:cjc036_2922"
    INDEX 01 00:55:57
  TRACK 51 AUDIO
    TITLE "0:"
    INDEX 01 00:57:66
  TRACK 52 AUDIO
    TITLE "3:cjc036_2923"
    INDEX 01 00:58:07
  TRACK 53 AUDIO
    TITLE "0:"
    INDEX 01 00:59:06
  TRACK 54 AUDIO
    TITLE "2:cjc036_2924"
    INDEX 01 00:59:08
  TRACK 55 AUDIO
    TITLE "0:"
    INDEX 01 01:02:12
  TRACK 56 AUDIO
    TITLE "3:cjc036_2925"
    INDEX 01 01:02:38
  TRACK 57 AUDIO
    TITLE "0:"
    INDEX 01 01:03:27
  TRACK 58 AUDIO
    TITLE "2:cjc036_2926"
    INDEX 01 01:03:29
  TRACK 59 AUDIO
    TITLE "0:"
    INDEX 01 01:06:51
  TRACK 60 AUDIO
    TITLE "3:cjc036_2927"
    INDEX 01 01:07:02
  TRACK 61 AUDIO
    TITLE "0:"
    INDEX 01 01:08:05
  TRACK 62 AUDIO
    TITLE "2:cjc036_2928"
    INDEX 01 01:08:07
  TRACK 63 AUDIO
    TITLE "0:"
    INDEX 01 01:11:09
  TRACK 64 AUDIO
    TITLE "3:cjc036_2929"
    INDEX 01 01:11:62
  TRACK 65 AUDIO
    TITLE "0:"
    INDEX 01 01:14:19
  TRACK 66 AUDIO
    TITLE "3:cjc036_2930"
    INDEX 01 01:14:21
  TRACK 67 AUDIO
    TITLE "0:"
    INDEX 01 01:15:17
  TRACK 68 AUDIO
    TITLE "2:cjc036_2931"
    INDEX 01 01:15:33
  TRACK 69 AUDIO
    TITLE "0:"
    INDEX 01 01:17:59
  TRACK 70 AUDIO
    TITLE "3:cjc036_2932"
    INDEX 01 01:18:07
  TRACK 71 AUDIO
    TITLE "0:"
    INDEX 01 01:18:74
  TRACK 72 AUDIO
    TITLE "2:cjc036_2933"
    INDEX 01 01:19:05
  TRACK 73 AUDIO
    TITLE "0:"
    INDEX 01 01:21:41
  TRACK 74 AUDIO
    TITLE "3:cjc036_2934"
    INDEX 01 01:21:65
  TRACK 75 AUDIO
    TITLE "0:"
    INDEX 01 01:22:66
  TRACK 76 AUDIO
    TITLE "2:cjc036_2935"
    INDEX 01 01:22:68
  TRACK 77 AUDIO
    TITLE "0:"
    INDEX 01 01:26:17
  TRACK 78 AUDIO
    TITLE "3:cjc036_2936"
    INDEX 01 01:27:08
  TRACK 79 AUDIO
    TITLE "0:"
    INDEX 01 01:29:33
  TRACK 80 AUDIO
    TITLE "3:cjc036_2937"
    INDEX 01 01:29:41
  TRACK 81 AUDIO
    TITLE "0:"
    INDEX 01 01:30:32
  TRACK 82 AUDIO
    TITLE "2:cjc036_2938"
    INDEX 01 01:30:34
  TRACK 83 AUDIO
    TITLE "0:"
    INDEX 01 01:33:44
  TRACK 84 AUDIO
    TITLE "3:cjc036_2939"
    INDEX 01 01:33:66
  TRACK 85 AUDIO
    TITLE "0:"
    INDEX 01 01:34:55
  TRACK 86 AUDIO
    TITLE "2:cjc036_2940"
    INDEX 01 01:34:57
  TRACK 87 AUDIO
    TITLE "0:"
    INDEX 01 01:37:62
  TRACK 88 AUDIO
    TITLE "3:cjc036_2941"
    INDEX 01 01:38:02
  TRACK 89 AUDIO
    TITLE "0:"
    INDEX 01 01:39:06
  TRACK 90 AUDIO
    TITLE "2:cjc036_2942"
    INDEX 01 01:39:08
  TRACK 91 AUDIO
    TITLE "0:"
    INDEX 01 01:41:65
